HIERARCHY
ROOT Hips
{
	OFFSET 0.000000 100.481300 0.000000
	CHANNELS 6 Xposition Yposition Zposition Xrotation Yrotation Zrotation
	JOINT Spine
	{
		OFFSET -0.279200 12.230698 -2.892100
		CHANNELS 3 Xrotation Yrotation Zrotation
		JOINT Spine1
		{
			OFFSET -0.325700 14.269203 -3.374200
			CHANNELS 3 Xrotation Yrotation Zrotation
			JOINT Spine2
			{
				OFFSET -0.372300 16.307602 -0.352600
				CHANNELS 3 Xrotation Yrotation Zrotation
				JOINT Neck
				{
					OFFSET -0.418800 17.814194 8.416900
					CHANNELS 3 Xrotation Yrotation Zrotation
					JOINT Head
					{
						OFFSET 0.000000 7.031097 3.806800
						CHANNELS 3 Xrotation Yrotation Zrotation
						JOINT HeadTop_End
						{
							OFFSET 0.000000 24.646606 12.978600
							CHANNELS 3 Xrotation Yrotation Zrotation
							End Site
							{
								OFFSET 0.000000 27.854965 0.000000
							}
						}
					}
				}
				JOINT LeftShoulder
				{
					OFFSET 16.952999 14.495407 -7.737500
					CHANNELS 3 Xrotation Yrotation Zrotation
					JOINT LeftArm
					{
						OFFSET 9.308998 -2.777710 0.208600
						CHANNELS 3 Xrotation Yrotation Zrotation
						JOINT LeftForeArm
						{
							OFFSET 29.972298 0.000000 0.000000
							CHANNELS 3 Xrotation Yrotation Zrotation
							JOINT LeftHand
							{
								OFFSET 26.026505 0.000000 0.000000
								CHANNELS 3 Xrotation Yrotation Zrotation
								JOINT LeftHandThumb1
								{
									OFFSET 12.240501 -7.147949 9.207150
									CHANNELS 3 Xrotation Yrotation Zrotation
									JOINT LeftHandThumb2
									{
										OFFSET 4.138618 -2.389435 2.389433
										CHANNELS 3 Xrotation Yrotation Zrotation
										JOINT LeftHandThumb3
										{
											OFFSET 2.726913 -1.574387 1.574386
											CHANNELS 3 Xrotation Yrotation Zrotation
											JOINT LeftHandThumb4
											{
												OFFSET 3.941010 -2.275345 2.275342
												CHANNELS 3 Xrotation Yrotation Zrotation
												End Site
												{
													OFFSET -0.005798 5.087799 0.009903
												}
											}
										}
									}
								}
								JOINT LeftHandIndex1
								{
									OFFSET 24.424698 -1.985611 5.953459
									CHANNELS 3 Xrotation Yrotation Zrotation
									JOINT LeftHandIndex2
									{
										OFFSET 6.426697 0.000000 0.000000
										CHANNELS 3 Xrotation Yrotation Zrotation
										JOINT LeftHandIndex3
										{
											OFFSET 5.337898 0.000000 0.000000
											CHANNELS 3 Xrotation Yrotation Zrotation
											JOINT LeftHandIndex4
											{
												OFFSET 4.409401 0.000000 0.000000
												CHANNELS 3 Xrotation Yrotation Zrotation
												End Site
												{
													OFFSET 0.000000 4.409363 0.014373
												}
											}
										}
									}
								}
								JOINT LeftHandMiddle1
								{
									OFFSET 23.810104 0.000000 0.000000
									CHANNELS 3 Xrotation Yrotation Zrotation
									JOINT LeftHandMiddle2
									{
										OFFSET 7.176498 0.000000 0.000000
										CHANNELS 3 Xrotation Yrotation Zrotation
										JOINT LeftHandMiddle3
										{
											OFFSET 6.774902 0.000000 0.000000
											CHANNELS 3 Xrotation Yrotation Zrotation
											JOINT LeftHandMiddle4
											{
												OFFSET 5.403328 0.000000 0.000000
												CHANNELS 3 Xrotation Yrotation Zrotation
												End Site
												{
													OFFSET -0.027702 5.403244 0.017414
												}
											}
										}
									}
								}
								JOINT LeftHandRing1
								{
									OFFSET 22.908401 -0.839279 -6.020567
									CHANNELS 3 Xrotation Yrotation Zrotation
									JOINT LeftHandRing2
									{
										OFFSET 6.337502 0.000000 0.000000
										CHANNELS 3 Xrotation Yrotation Zrotation
										JOINT LeftHandRing3
										{
											OFFSET 5.779297 0.000000 0.000000
											CHANNELS 3 Xrotation Yrotation Zrotation
											JOINT LeftHandRing4
											{
												OFFSET 4.965698 0.000000 0.000000
												CHANNELS 3 Xrotation Yrotation Zrotation
												End Site
												{
													OFFSET 0.000000 4.965668 0.016186
												}
											}
										}
									}
								}
								JOINT LeftHandPinky1
								{
									OFFSET 20.037003 -1.530319 -10.950146
									CHANNELS 3 Xrotation Yrotation Zrotation
									JOINT LeftHandPinky2
									{
										OFFSET 5.254700 0.000000 0.000000
										CHANNELS 3 Xrotation Yrotation Zrotation
										JOINT LeftHandPinky3
										{
											OFFSET 4.810204 0.000000 0.000000
											CHANNELS 3 Xrotation Yrotation Zrotation
											JOINT LeftHandPinky4
											{
												OFFSET 3.647202 0.000000 0.000000
												CHANNELS 3 Xrotation Yrotation Zrotation
												End Site
												{
													OFFSET 0.000000 3.647186 0.011889
												}
											}
										}
									}
								}
							}
						}
					}
				}
				JOINT RightShoulder
				{
					OFFSET -15.141001 14.495407 -7.737500
					CHANNELS 3 Xrotation Yrotation Zrotation
					JOINT RightArm
					{
						OFFSET -9.308998 -2.777710 0.208500
						CHANNELS 3 Xrotation Yrotation Zrotation
						JOINT RightForeArm
						{
							OFFSET -29.972300 0.000000 0.000000
							CHANNELS 3 Xrotation Yrotation Zrotation
							JOINT RightHand
							{
								OFFSET -26.026505 0.000000 0.000000
								CHANNELS 3 Xrotation Yrotation Zrotation
								JOINT RightHandThumb1
								{
									OFFSET -12.240601 -7.148026 9.207092
									CHANNELS 3 Xrotation Yrotation Zrotation
									JOINT RightHandThumb2
									{
										OFFSET -4.138618 -2.389435 2.389433
										CHANNELS 3 Xrotation Yrotation Zrotation
										JOINT RightHandThumb3
										{
											OFFSET -2.726974 -1.574417 1.574421
											CHANNELS 3 Xrotation Yrotation Zrotation
											JOINT RightHandThumb4
											{
												OFFSET -3.941010 -2.275345 2.275343
												CHANNELS 3 Xrotation Yrotation Zrotation
												End Site
												{
													OFFSET 0.005814 5.087799 0.009927
												}
											}
										}
									}
								}
								JOINT RightHandIndex1
								{
									OFFSET -24.424698 -1.985657 5.953444
									CHANNELS 3 Xrotation Yrotation Zrotation
									JOINT RightHandIndex2
									{
										OFFSET -6.426697 0.000000 0.000000
										CHANNELS 3 Xrotation Yrotation Zrotation
										JOINT RightHandIndex3
										{
											OFFSET -5.337898 0.000000 0.000000
											CHANNELS 3 Xrotation Yrotation Zrotation
											JOINT RightHandIndex4
											{
												OFFSET -4.409401 0.000000 0.000000
												CHANNELS 3 Xrotation Yrotation Zrotation
												End Site
												{
													OFFSET 0.000000 4.409363 0.014408
												}
											}
										}
									}
								}
								JOINT RightHandMiddle1
								{
									OFFSET -23.810097 0.000000 0.000000
									CHANNELS 3 Xrotation Yrotation Zrotation
									JOINT RightHandMiddle2
									{
										OFFSET -7.176498 0.000000 0.000000
										CHANNELS 3 Xrotation Yrotation Zrotation
										JOINT RightHandMiddle3
										{
											OFFSET -6.774902 0.000000 0.000000
											CHANNELS 3 Xrotation Yrotation Zrotation
											JOINT RightHandMiddle4
											{
												OFFSET -5.403328 0.000000 0.000000
												CHANNELS 3 Xrotation Yrotation Zrotation
												End Site
												{
													OFFSET 0.027702 5.403244 0.017457
												}
											}
										}
									}
								}
								JOINT RightHandRing1
								{
									OFFSET -22.908302 -0.839325 -6.020576
									CHANNELS 3 Xrotation Yrotation Zrotation
									JOINT RightHandRing2
									{
										OFFSET -6.337502 0.000000 0.000000
										CHANNELS 3 Xrotation Yrotation Zrotation
										JOINT RightHandRing3
										{
											OFFSET -5.779297 0.000000 0.000000
											CHANNELS 3 Xrotation Yrotation Zrotation
											JOINT RightHandRing4
											{
												OFFSET -4.965698 0.000000 0.000000
												CHANNELS 3 Xrotation Yrotation Zrotation
												End Site
												{
													OFFSET 0.000000 4.965668 0.016226
												}
											}
										}
									}
								}
								JOINT RightHandPinky1
								{
									OFFSET -20.037003 -1.530334 -10.950259
									CHANNELS 3 Xrotation Yrotation Zrotation
									JOINT RightHandPinky2
									{
										OFFSET -5.254700 0.000000 0.000000
										CHANNELS 3 Xrotation Yrotation Zrotation
										JOINT RightHandPinky3
										{
											OFFSET -4.810204 0.000000 0.000000
											CHANNELS 3 Xrotation Yrotation Zrotation
											JOINT RightHandPinky4
											{
												OFFSET -3.647202 0.000000 0.000000
												CHANNELS 3 Xrotation Yrotation Zrotation
												End Site
												{
													OFFSET 0.000000 3.647186 0.011917
												}
											}
										}
									}
								}
							}
						}
					}
				}
			}
		}
	}
	JOINT LeftUpLeg
	{
		OFFSET 15.427100 -6.655098 0.678600
		CHANNELS 3 Xrotation Yrotation Zrotation
		JOINT LeftLeg
		{
			OFFSET 4.081073 -39.591068 13.024000
			CHANNELS 3 Xrotation Yrotation Zrotation
			JOINT LeftFoot
			{
				OFFSET -4.081074 -37.707932 -15.979700
				CHANNELS 3 Xrotation Yrotation Zrotation
				JOINT LeftToeBase
				{
					OFFSET 5.346399 -15.068900 20.645000
					CHANNELS 3 Xrotation Yrotation Zrotation
					JOINT LeftToe_End
					{
						OFFSET 2.754700 0.931300 11.300900
						CHANNELS 3 Xrotation Yrotation Zrotation
						End Site
						{
							OFFSET 0.000000 11.669021 0.000000
						}
					}
				}
			}
		}
	}
	JOINT RightUpLeg
	{
		OFFSET -15.569500 -6.655098 0.678600
		CHANNELS 3 Xrotation Yrotation Zrotation
		JOINT RightLeg
		{
			OFFSET -4.081825 -39.591045 13.023800
			CHANNELS 3 Xrotation Yrotation Zrotation
			JOINT RightFoot
			{
				OFFSET 4.081824 -37.707954 -15.979600
				CHANNELS 3 Xrotation Yrotation Zrotation
				JOINT RightToeBase
				{
					OFFSET -5.346400 -15.068900 20.645000
					CHANNELS 3 Xrotation Yrotation Zrotation
					JOINT RightToe_End
					{
						OFFSET -2.754700 0.931300 11.300900
						CHANNELS 3 Xrotation Yrotation Zrotation
						End Site
						{
							OFFSET 0.000000 11.669021 0.000000
						}
					}
				}
			}
		}
	}
}
MOTION
Frames: 4
Frame Time: 0.033333
1.063384 97.581314 -0.676725 -3.751556 -5.195130 -3.872389 3.290794 1.521088 2.842006 1.146035 0.329155 1.552970 1.123712 0.356192 1.550933 5.622646 -0.077170 0.463897 -7.551131 1.374726 -0.084352 -0.000000 -0.000000 -0.000000 1.046096 -17.446000 -12.316924 3.915810 -19.989411 -69.767589 -0.000000 -1.453254 -0.000022 -33.228297 -1.359645 -6.191107 -0.666104 2.158566 4.837360 11.859644 25.414854 17.056681 -13.811967 3.541910 9.030649 0.000000 0.000000 -0.000003 0.020433 -0.966549 -7.590929 0.267894 1.752973 -17.376517 0.057692 0.821031 -8.038836 -0.000001 -0.000000 0.000002 -0.077460 2.661815 -15.698703 0.268774 1.755780 -17.405234 0.300518 1.853957 -18.413068 0.000000 -0.000000 -0.000002 0.137968 3.644580 -21.134832 0.386572 2.094652 -20.910457 0.283120 1.800885 -17.867556 -0.000001 -0.000000 -0.000003 0.923045 5.558205 -27.126887 0.268796 1.755842 -17.405885 0.241898 1.667664 -16.505528 0.000001 0.000000 0.000002 1.189529 15.344121 14.707059 13.162757 27.550896 58.780963 -0.000003 6.689792 -0.000007 -20.174748 -0.523579 6.792867 -1.664525 -0.169110 -4.216952 12.708055 -29.838160 -16.127687 -15.551979 -3.555847 -12.703318 0.000000 0.000002 0.000001 0.037638 1.264477 6.828355 0.213862 -1.396486 17.412917 0.046095 -0.654323 8.059120 0.000001 -0.000001 -0.000001 -0.135874 -2.206387 14.998764 0.214462 -1.398401 17.437709 0.239790 -1.476596 18.447082 -0.000003 0.000002 0.000000 0.031313 -3.078199 20.463785 0.308444 -1.668280 20.948525 0.225825 -1.434046 17.897097 -0.000000 0.000000 -0.000000 0.748329 -4.885950 26.472205 0.214425 -1.398284 17.436018 0.192930 -1.327904 16.532292 -0.000000 -0.000002 0.000004 -10.250261 14.652619 11.507545 12.225993 1.644141 4.064409 0.757151 0.809231 -8.237266 -4.933146 0.000013 0.000002 0.000001 -0.000000 0.000000 3.588569 -10.069747 1.695855 6.765003 -8.484259 -2.423581 -5.422211 -3.054194 5.029864 -7.273478 0.000001 0.000001 -0.000001 -0.000000 -0.000000 
1.480813 96.855499 -0.425091 -4.203231 -4.761820 -4.383480 3.741679 2.403084 3.739908 1.539383 0.822802 1.510526 1.523415 0.845361 1.507879 5.243381 -0.225487 0.382003 -8.501712 0.515383 -0.119162 -0.000000 -0.000000 0.000000 0.901848 -17.164033 -12.807530 3.242578 -20.765746 -68.993250 -0.000005 -2.219761 -0.000004 -31.241794 0.041503 -6.013139 8.346720 1.310053 7.595164 11.768454 25.733105 11.694066 -14.848365 -0.874297 9.539388 0.000001 -0.000000 -0.000001 0.611120 -3.219477 -0.732320 0.156422 1.346077 -13.255812 0.112619 1.144354 -11.240422 -0.000001 -0.000000 -0.000003 0.569247 6.231544 -8.182610 0.247623 1.686853 -16.701045 0.291325 1.826124 -18.126796 -0.000001 -0.000000 0.000001 0.592629 5.143689 -14.465775 0.305962 1.870228 -18.580674 0.284792 1.806062 -17.920734 0.000000 -0.000000 0.000002 2.357823 8.734114 -25.885384 0.240863 1.664167 -16.469845 0.364885 2.037022 -20.308902 -0.000000 -0.000000 0.000002 1.270786 15.368738 14.180891 12.851365 26.284113 59.212604 -0.000005 6.680368 0.000002 -19.589647 -0.560722 7.398412 -5.039684 0.059320 -4.963247 16.102121 -34.992528 -9.976585 -10.405238 -10.694075 -7.314632 -0.000000 0.000002 0.000001 0.108614 0.476839 15.567302 0.238574 -1.472953 18.399942 0.058354 -0.735696 9.069450 -0.000001 0.000000 -0.000000 -0.473862 -1.731502 20.580863 0.376566 -1.836285 23.176126 0.183133 -1.294469 16.104234 -0.000000 -0.000001 0.000000 -0.263975 -2.752894 26.512209 0.578059 -2.249147 28.824228 0.293316 -1.628219 20.422505 -0.000000 -0.000001 -0.000001 -0.631528 -3.518210 20.315450 0.370382 -1.821772 22.982183 0.317508 -1.691747 21.257593 0.000002 -0.000001 0.000000 -12.210692 7.983074 9.609064 17.220406 1.100037 5.420762 -1.142614 -3.892538 -7.115283 -4.749329 -0.000001 0.000001 -0.000000 -0.000000 0.000000 3.565238 -10.227157 1.405866 8.529870 -8.428590 -1.708550 -6.476941 -3.298339 5.171920 -7.472224 0.000002 -0.000001 -0.000000 0.000000 0.000000 
1.780327 96.467224 -0.104283 -4.777214 -5.093817 -4.530525 4.448621 3.544625 4.041218 1.979003 1.388590 1.410729 1.969420 1.407110 1.406363 4.883192 -0.366628 0.335243 -9.823256 -0.249906 0.186428 -0.000000 -0.000000 0.000000 0.819102 -17.267121 -12.907725 2.417417 -21.224908 -68.226855 0.000008 -2.797011 -0.000013 -29.510119 1.329318 -5.829908 18.675921 0.477754 10.326738 9.495305 19.416922 7.957073 -15.529197 -8.935483 11.333137 0.000004 -0.000001 -0.000004 2.064953 -4.068240 8.637882 0.062651 0.855377 -8.377458 0.190224 1.482225 -14.625633 -0.000000 -0.000000 0.000001 -0.080389 9.452991 1.527726 0.187028 1.469933 -14.501514 0.274702 1.774566 -17.597658 -0.000001 0.000000 0.000001 0.709694 9.276261 -5.239565 0.231142 1.630934 -16.131759 0.293629 1.833142 -18.199000 0.000001 0.000001 0.000003 3.556221 12.742525 -23.507303 0.201449 1.524572 -15.053361 0.515691 2.405298 -24.198401 -0.000001 0.000000 -0.000001 1.296743 15.598055 13.798265 12.293671 25.564235 59.295973 -0.000008 6.328706 0.000007 -18.156755 -1.025771 8.316740 -8.912738 0.473397 -5.691728 20.333314 -40.333995 -2.353832 -4.424530 -18.308903 -0.262458 -0.000001 -0.000002 0.000002 0.581034 -0.100002 19.615407 0.270318 -1.565103 19.597254 0.079207 -0.856172 10.570677 -0.000003 -0.000000 -0.000002 -0.734099 -1.286296 22.328437 0.562936 -2.221455 28.436659 0.124447 -1.070539 13.261107 0.000000 -0.000002 -0.000000 -0.838158 -1.971743 29.830923 0.835960 -2.664231 34.835444 0.346121 -1.763507 22.206740 -0.000000 0.000000 0.000000 -1.363851 -2.528474 13.100913 0.543727 -2.185637 27.937108 0.468365 -2.037293 25.891760 0.000001 -0.000001 0.000001 -13.394565 1.587902 6.895801 19.720593 -0.781851 5.678171 -2.585728 -10.352017 -7.316054 -3.969849 0.000006 0.000003 0.000000 -0.000000 0.000000 3.730856 -9.990697 1.180726 9.627634 -8.238233 -1.764324 -7.126628 -3.381294 5.528394 -7.575254 0.000002 0.000000 0.000000 -0.000001 -0.000000 
1.912097 96.256081 0.151958 -5.270597 -6.473008 -4.251002 5.306149 4.591617 3.515932 2.457584 1.934965 1.200437 2.453579 1.951318 1.192679 4.535401 -0.439135 0.345552 -11.447612 -0.364451 1.058466 -0.000000 0.000000 -0.000000 0.837014 -17.747953 -12.445785 1.989347 -21.141843 -67.208255 -0.000001 -3.669827 0.000008 -28.767036 2.525423 -5.670735 28.397372 -0.315805 12.555644 3.841842 7.230838 5.493130 -13.391196 -15.177145 15.188606 0.000001 -0.000000 -0.000000 2.185774 -2.685887 14.543723 0.077041 0.947977 -9.292147 0.258692 1.723296 -17.073108 -0.000002 0.000000 0.000001 -0.936546 10.951453 6.902183 0.156050 1.344525 -13.240212 0.280974 1.794215 -17.799121 -0.000000 -0.000001 -0.000000 0.140994 14.524452 0.256496 0.269936 1.759498 -17.443369 0.344437 1.980926 -19.725552 0.000001 -0.000002 -0.000005 3.687890 14.043031 -23.824629 0.245735 1.680563 -16.636971 0.685599 2.751994 -27.973552 0.000001 -0.000001 0.000001 1.213606 16.236832 13.711319 11.173754 25.667982 59.121974 0.000005 5.874236 -0.000007 -15.565791 -1.864940 9.232473 -12.576677 1.000063 -6.245397 25.612243 -44.682295 5.677772 0.851082 -24.826203 7.617528 0.000002 -0.000001 0.000004 1.250525 -0.687715 15.641432 0.284653 -1.604788 20.115607 0.104117 -0.980285 12.125002 -0.000001 0.000001 0.000002 -0.523115 -1.184880 17.559045 0.636353 -2.351862 30.276326 0.069987 -0.805221 9.934831 -0.000000 0.000001 0.000002 -1.168088 -0.906759 26.383347 0.760872 -2.553064 33.185762 0.299898 -1.645797 20.653030 -0.000000 0.000002 -0.000001 -1.064148 -2.803986 7.563994 0.618787 -2.321566 29.845649 0.588310 -2.267651 29.084359 0.000000 0.000002 -0.000002 -14.075922 -3.123002 3.888567 19.830315 -5.755379 4.744719 -3.352754 -13.271336 -8.080630 -2.578681 0.000003 -0.000000 0.000000 0.000001 0.000000 3.340591 -9.244467 0.918441 10.797333 -8.222382 -2.711800 -7.624024 -2.931815 6.226442 -7.597977 0.000018 0.000000 0.000000 -0.000001 -0.000000 
